<svg width="26" height="26" viewBox="0 0 26 26" fill="none" xmlns="http://www.w3.org/2000/svg">
<g id="maki:cross">
<path id="Vector" d="M6.30926 3.93467L12.9999 10.6253L19.6559 3.96934C19.8029 3.81285 19.9801 3.68767 20.1766 3.60129C20.3732 3.51491 20.5852 3.46913 20.7999 3.46667C21.2596 3.46667 21.7005 3.64929 22.0256 3.97436C22.3506 4.29942 22.5333 4.7403 22.5333 5.20001C22.5373 5.41252 22.4979 5.62361 22.4174 5.82034C22.3369 6.01706 22.2171 6.19526 22.0653 6.34401L15.3226 13L22.0653 19.7427C22.3509 20.0222 22.5185 20.4006 22.5333 20.8C22.5333 21.2597 22.3506 21.7006 22.0256 22.0257C21.7005 22.3507 21.2596 22.5333 20.7999 22.5333C20.579 22.5425 20.3586 22.5056 20.1527 22.4251C19.9468 22.3445 19.7599 22.222 19.6039 22.0653L12.9999 15.3747L6.32659 22.048C6.18013 22.1993 6.00517 22.3201 5.81179 22.4034C5.61842 22.4867 5.41046 22.5308 5.19992 22.5333C4.74022 22.5333 4.29934 22.3507 3.97427 22.0257C3.64921 21.7006 3.46659 21.2597 3.46659 20.8C3.46255 20.5875 3.50198 20.3764 3.58246 20.1797C3.66293 19.983 3.78276 19.8048 3.93459 19.656L10.6773 13L3.93459 6.25734C3.64891 5.97786 3.48139 5.59939 3.46659 5.20001C3.46659 4.7403 3.64921 4.29942 3.97427 3.97436C4.29934 3.64929 4.74022 3.46667 5.19992 3.46667C5.61592 3.47187 6.01459 3.64001 6.30926 3.93467Z" fill="#FFC099"/>
</g>
</svg>
