<svg width="196" height="264" viewBox="0 0 196 264" fill="none" xmlns="http://www.w3.org/2000/svg">
<path d="M24.5 224.5C28.1667 214.5 49.1 190 99.5 180C149.9 170 179.667 102.5 187 72.5" stroke="#F5F5F5" stroke-width="4" stroke-linecap="round"/>
<path d="M80.5 2.5C83.1667 57.8333 102.5 138.4 144.5 16" stroke="#F5F5F5" stroke-width="4" stroke-linecap="round"/>
<path d="M94.5 2C100.833 36.5 117.1 86.2 131.5 9" stroke="#F5F5F5" stroke-width="4" stroke-linecap="round"/>
<path d="M48.5 16.5C64.3333 41 82.9 119.5 24.5 223.5" stroke="#F5F5F5" stroke-width="4" stroke-linecap="round"/>
<path d="M33.5 28C47.6667 65.5 64.8 155.6 16 206" stroke="#F5F5F5" stroke-width="4" stroke-linecap="round"/>
<path d="M13 56.5C23 87.5 51 151 2.5 176" stroke="#F5F5F5" stroke-width="4" stroke-linecap="round"/>
<path d="M70.5 5C71.1667 89 89 212.7 153 23.5" stroke="#F5F5F5" stroke-width="4" stroke-linecap="round"/>
<path d="M191.5 157C159.833 169.833 98.9 208.7 108.5 261.5" stroke="#F5F5F5" stroke-width="4" stroke-linecap="round"/>
<path d="M183.5 197C159 197.167 111.6 209.5 130 255.5" stroke="#F5F5F5" stroke-width="4" stroke-linecap="round"/>
<path d="M175 217.5C161.167 215.833 131.5 220.5 143.5 248.5" stroke="#F5F5F5" stroke-width="4" stroke-linecap="round"/>
<path d="M64.4999 261C49.5 239 65.6 223.2 104 194C152 157.5 179 159.5 193.5 105" stroke="#F5F5F5" stroke-width="4" stroke-linecap="round"/>
</svg>
